name analog
datacolumns 19
datarows 66
range 0.0 0.0325
endheader
time	ground_force_vx	ground_force_vy	ground_force_vz	ground_force_px	ground_force_py	ground_force_pz	l_ground_force_vx	l_ground_force_vy	l_ground_force_vz	l_ground_force_px	l_ground_force_py	l_ground_force_pz	ground_torque_x	ground_torque_y	ground_torque_z	l_ground_torque_x	l_ground_torque_y	l_ground_torque_z
0.0	-0.0	-0.0	-0.0	-9.280754089355469	1.7653706073760986	-772.8603515625	-0.0	-0.0	-0.0	-34.72441482543945	16.299118041992188	76.213623046875	-0.0	-0.0	-0.0	-0.0	-0.0	-0.0
0.0005	-0.0	-0.0	-0.0	-10.572763442993164	1.765558838844299	-773.4173583984375	-0.0	-0.0	-0.0	-34.75359344482422	16.104564666748047	75.91997528076172	-0.0	-0.0	-0.0	-0.0	-0.0	-0.0
0.001	-0.0	-0.0	-0.0	-10.751070976257324	1.9777299165725708	-771.6981201171875	-0.0	-0.0	-0.0	-35.02389907836914	16.194534301757812	76.22105407714844	-0.0	-0.0	-0.0	-0.0	-0.0	-0.0
0.0015	-0.0	-0.0	-0.0	-11.553933143615724	1.7224071025848389	-769.4071655273438	-0.0	-0.0	-0.0	-34.97826385498047	16.119266510009766	76.21395874023438	-0.0	-0.0	-0.0	-0.0	-0.0	-0.0
0.002	-0.0	-0.0	-0.0	-11.12016487121582	1.4550912380218506	-767.813232421875	-0.0	-0.0	-0.0	-34.70988464355469	16.269763946533203	75.5181884765625	-0.0	-0.0	-0.0	-0.0	-0.0	-0.0
0.0025	-0.0	-0.0	-0.0	-12.474918365478516	0.8002833127975464	-768.1663818359375	-0.0	-0.0	-0.0	-35.11310195922852	16.1328125	75.21904754638672	-0.0	-0.0	-0.0	-0.0	-0.0	-0.0
0.003	-0.0	-0.0	-0.0	-12.10168743133545	1.0259028673171997	-765.6869506835938	-0.0	-0.0	-0.0	-35.068939208984375	16.17852020263672	75.978759765625	-0.0	-0.0	-0.0	-0.0	-0.0	-0.0
0.0035	-0.0	-0.0	-0.0	-12.400260925292969	0.4456520080566406	-763.7421875	-0.0	-0.0	-0.0	-34.993995666503906	16.044254302978516	75.21945190429688	-0.0	-0.0	-0.0	-0.0	-0.0	-0.0
0.004	-0.0	-0.0	-0.0	-12.251124382019045	-0.3418923616409302	-762.0409545898438	-0.0	-0.0	-0.0	-34.918365478515625	16.210166931152344	75.04277801513672	-0.0	-0.0	-0.0	-0.0	-0.0	-0.0
0.0045000000000000005	-0.0	-0.0	-0.0	-12.550651550292969	-0.2966750264167785	-763.6381225585938	-0.0	-0.0	-0.0	-34.94798278808594	16.074804306030273	75.86639404296875	-0.0	-0.0	-0.0	-0.0	-0.0	-0.0
0.005	-0.0	-0.0	-0.0	-11.998286247253418	-1.040205717086792	-762.5736694335938	-0.0	-0.0	-0.0	-34.42621612548828	16.254667282104492	76.56575775146484	-0.0	-0.0	-0.0	-0.0	-0.0	-0.0
0.0055	-0.0	-0.0	-0.0	-12.042591094970703	-1.0540202856063845	-760.2764892578125	-0.0	-0.0	-0.0	-34.515869140625	15.68439483642578	76.62516021728516	-0.0	-0.0	-0.0	-0.0	-0.0	-0.0
0.006	-0.0	-0.0	-0.0	-11.86422634124756	-1.3664093017578125	-761.57568359375	-0.0	-0.0	-0.0	-34.87392044067383	16.284503936767578	74.98700714111328	-0.0	-0.0	-0.0	-0.0	-0.0	-0.0
0.006500000000000001	-0.0	-0.0	-0.0	-11.344511985778809	-1.7372254133224487	-759.3369140625	-0.0	-0.0	-0.0	-34.96329116821289	16.059553146362305	74.98690795898438	-0.0	-0.0	-0.0	-0.0	-0.0	-0.0
0.007	-0.0	-0.0	-0.0	-11.329415321350098	-2.213139057159424	-760.5723266601562	-0.0	-0.0	-0.0	-34.99293899536133	16.149688720703125	74.57787322998047	-0.0	-0.0	-0.0	-0.0	-0.0	-0.0
0.0075	-0.0	-0.0	-0.0	-11.270185470581056	-2.481060028076172	-761.6329345703125	-0.0	-0.0	-0.0	-34.754432678222656	16.329301834106445	75.63092041015625	-0.0	-0.0	-0.0	-0.0	-0.0	-0.0
0.008	-0.0	-0.0	-0.0	-11.359489440917969	-2.9561805725097656	-760.5143432617188	-0.0	-0.0	-0.0	-34.93381881713867	16.149261474609375	74.98827362060547	-0.0	-0.0	-0.0	-0.0	-0.0	-0.0
0.0085	-0.0	-0.0	-0.0	-11.404044151306152	-3.3869552612304688	-760.043212890625	-0.0	-0.0	-0.0	-34.63547134399414	15.999465942382812	77.09144592285156	-0.0	-0.0	-0.0	-0.0	-0.0	-0.0
0.009000000000000001	-0.0	-0.0	-0.0	-10.646354675292969	-3.5946431159973145	-760.8087768554688	-0.0	-0.0	-0.0	-34.60637283325195	15.970125198364258	75.63219451904297	-0.0	-0.0	-0.0	-0.0	-0.0	-0.0
0.0095	-0.0	-0.0	-0.0	-10.957941055297852	-3.6394076347351074	-760.5700073242188	-0.0	-0.0	-0.0	-34.770259857177734	16.493694305419922	75.92408752441406	-0.0	-0.0	-0.0	-0.0	-0.0	-0.0
0.01	-0.0	-0.0	-0.0	-10.526111602783203	-3.4461328983306885	-760.1619262695312	-0.0	-0.0	-0.0	-34.88880157470703	16.418790817260742	74.7528076171875	-0.0	-0.0	-0.0	-0.0	-0.0	-0.0
0.0105	-0.0	-0.0	-0.0	-10.495830535888672	-3.1355316638946533	-761.7495727539062	-0.0	-0.0	-0.0	-34.96309280395508	16.09087371826172	75.75225830078125	-0.0	-0.0	-0.0	-0.0	-0.0	-0.0
0.011	-0.0	-0.0	-0.0	-9.679869651794434	-2.614844560623169	-761.3963623046875	-0.0	-0.0	-0.0	-34.917518615722656	16.194534301757812	76.62672424316406	-0.0	-0.0	-0.0	-0.0	-0.0	-0.0
0.0115	-0.0	-0.0	-0.0	-9.91616439819336	-2.834535837173462	-760.7496337890625	-0.0	-0.0	-0.0	-34.69655227661133	15.759997367858888	74.99171447753906	-0.0	-0.0	-0.0	-0.0	-0.0	-0.0
0.012	-0.0	-0.0	-0.0	-9.146344184875488	-1.2176122665405271	-760.8693237304688	-0.0	-0.0	-0.0	-34.91721725463867	16.091341018676758	75.9254150390625	-0.0	-0.0	-0.0	-0.0	-0.0	-0.0
0.0125	-0.0	-0.0	-0.0	-9.2643404006958	-0.9668937921524048	-760.9293212890625	-0.0	-0.0	-0.0	-34.82989501953125	15.970706939697266	75.28351593017578	-0.0	-0.0	-0.0	-0.0	-0.0	-0.0
0.013000000000000001	-0.0	-0.0	-0.0	-9.323400497436523	-0.2825467884540558	-762.6813354492188	-0.0	-0.0	-0.0	-35.25954055786133	16.34367561340332	75.2839584350586	-0.0	-0.0	-0.0	-0.0	-0.0	-0.0
0.0135	-0.0	-0.0	-0.0	-9.469490051269531	0.5783331394195557	-759.8706665039062	-0.0	-0.0	-0.0	-34.84275436401367	16.359037399291992	75.2844009399414	-0.0	-0.0	-0.0	-0.0	-0.0	-0.0
0.014	-0.0	-0.0	-0.0	-9.188682556152344	0.8760930299758911	-761.2233276367188	-0.0	-0.0	-0.0	-34.85806655883789	16.03005027770996	75.85519409179688	-0.0	-0.0	-0.0	-0.0	-0.0	-0.0
0.0145	-0.0	-0.0	-0.0	-9.293155670166016	1.6019856929779053	-760.5172119140625	-0.0	-0.0	-0.0	-34.93204879760742	16.027101516723633	75.44306945800781	-0.0	-0.0	-0.0	-0.0	-0.0	-0.0
0.015	-0.0	-0.0	-0.0	-9.20398235321045	2.0474119186401367	-759.7003173828125	-0.0	-0.0	-0.0	-34.72532653808594	16.1356258392334	74.9220199584961	-0.0	-0.0	-0.0	-0.0	-0.0	-0.0
0.0155	-0.0	-0.0	-0.0	-8.788575172424316	2.151754140853882	-758.5698852539062	-0.0	-0.0	-0.0	-34.904258728027344	16.327836990356445	75.86630249023438	-0.0	-0.0	-0.0	-0.0	-0.0	-0.0
0.016	-0.0	-0.0	-0.0	-8.431831359863281	2.643243789672852	-760.7989501953125	-0.0	-0.0	-0.0	-34.94728469848633	16.178955078125	75.33317565917969	-0.0	-0.0	-0.0	-0.0	-0.0	-0.0
0.0165	-0.0	-0.0	-0.0	-8.2811918258667	3.030433654785156	-759.92138671875	-0.0	-0.0	-0.0	-34.99378967285156	16.280773162841797	77.19491577148438	-0.0	-0.0	-0.0	-0.0	-0.0	-0.0
0.017	-0.0	-0.0	-0.0	-8.36159896850586	2.8213541507720947	-760.2742309570312	-0.0	-0.0	-0.0	-35.09491729736328	16.3275089263916	75.08831787109375	-0.0	-0.0	-0.0	-0.0	-0.0	-0.0
0.0175	-0.0	-0.0	-0.0	-8.167903900146484	3.5926427841186523	-759.9481811523438	-0.0	-0.0	-0.0	-34.8149299621582	16.061609268188477	76.26304626464844	-0.0	-0.0	-0.0	-0.0	-0.0	-0.0
0.018000000000000002	-0.0	-0.0	-0.0	-8.812708854675293	3.2860121726989746	-759.98193359375	-0.0	-0.0	-0.0	-34.81496810913086	15.897494316101074	74.9366455078125	-0.0	-0.0	-0.0	-0.0	-0.0	-0.0
0.0185	-0.0	-0.0	-0.0	-8.339242935180664	3.654346466064453	-759.3521728515625	-0.0	-0.0	-0.0	-34.93128967285156	16.01459503173828	75.47232818603516	-0.0	-0.0	-0.0	-0.0	-0.0	-0.0
0.019	-0.0	-0.0	-0.0	-8.711566925048828	3.627286195755005	-761.87060546875	-0.0	-0.0	-0.0	-34.636104583740234	15.90886116027832	76.8585205078125	-0.0	-0.0	-0.0	-0.0	-0.0	-0.0
0.0195	-0.0	-0.0	-0.0	-8.343284606933594	3.5496609210968018	-761.80908203125	-0.0	-0.0	-0.0	-34.88880157470703	16.401235580444336	76.1566162109375	-0.0	-0.0	-0.0	-0.0	-0.0	-0.0
0.02	-0.0	-0.0	-0.0	-8.50621223449707	3.460492849349976	-764.6613159179688	-0.0	-0.0	-0.0	-34.899513244628906	15.85049533843994	76.4457778930664	-0.0	-0.0	-0.0	-0.0	-0.0	-0.0
0.0205	-0.0	-0.0	-0.0	-8.091432571411133	3.239909648895264	-764.7582397460938	-0.0	-0.0	-0.0	-34.88880157470703	16.47513771057129	74.42198181152344	-0.0	-0.0	-0.0	-0.0	-0.0	-0.0
0.021	-0.0	-0.0	-0.0	-8.84749984741211	2.6051676273345947	-766.1712646484375	-0.0	-0.0	-0.0	-35.0623664855957	16.3162899017334	76.34259796142578	-0.0	-0.0	-0.0	-0.0	-0.0	-0.0
0.021500000000000002	-0.0	-0.0	-0.0	-8.936747550964355	2.909937620162964	-763.5325317382812	-0.0	-0.0	-0.0	-35.16743469238281	16.268573760986328	75.74352264404297	-0.0	-0.0	-0.0	-0.0	-0.0	-0.0
0.022	-0.0	-0.0	-0.0	-9.183635711669922	2.5954349040985107	-765.9228515625	-0.0	-0.0	-0.0	-34.76763916015625	16.04648208618164	75.33032989501953	-0.0	-0.0	-0.0	-0.0	-0.0	-0.0
0.0225	-0.0	-0.0	-0.0	-9.618988037109377	1.814074158668518	-765.694091796875	-0.0	-0.0	-0.0	-34.6681022644043	15.892662048339844	77.68510437011719	-0.0	-0.0	-0.0	-0.0	-0.0	-0.0
0.023	-0.0	-0.0	-0.0	-9.72394561767578	1.42608642578125	-765.9005737304688	-0.0	-0.0	-0.0	-34.53708267211914	15.940645217895508	75.82964324951172	-0.0	-0.0	-0.0	-0.0	-0.0	-0.0
0.0235	-0.0	-0.0	-0.0	-9.146867752075195	1.3053874969482422	-764.6566772460938	-0.0	-0.0	-0.0	-34.57879638671875	16.310340881347656	76.1566162109375	-0.0	-0.0	-0.0	-0.0	-0.0	-0.0
0.024	-0.0	-0.0	-0.0	-9.262062072753906	0.8179903626441956	-766.4801025390625	-0.0	-0.0	-0.0	-34.43192672729492	16.62831687927246	76.19422149658203	-0.0	-0.0	-0.0	-0.0	-0.0	-0.0
0.0245	-0.0	-0.0	-0.0	-9.44044589996338	0.9110211133956908	-766.7298583984375	-0.0	-0.0	-0.0	-34.88880157470703	16.053457260131836	76.21943664550781	-0.0	-0.0	-0.0	-0.0	-0.0	-0.0
0.025	-0.0	-0.0	-0.0	-9.147191047668455	-0.1941528022289276	-764.9248046875	-0.0	-0.0	-0.0	-35.03561782836914	16.088422775268555	76.31867218017578	-0.0	-0.0	-0.0	-0.0	-0.0	-0.0
0.025500000000000002	-0.0	-0.0	-0.0	-8.81591796875	-0.2673912048339844	-765.694091796875	-0.0	-0.0	-0.0	-34.7259521484375	16.300662994384766	75.86869812011719	-0.0	-0.0	-0.0	-0.0	-0.0	-0.0
0.026000000000000002	-0.0	-0.0	-0.0	-9.048733711242676	-0.4043596982955932	-765.5045166015625	-0.0	-0.0	-0.0	-34.76713943481445	15.908429145812988	76.21979522705078	-0.0	-0.0	-0.0	-0.0	-0.0	-0.0
0.0265	-0.0	-0.0	-0.0	-8.831840515136719	-0.2102281153202057	-764.6710815429688	-0.0	-0.0	-0.0	-34.506080627441406	16.538177490234375	76.19093322753906	-0.0	-0.0	-0.0	-0.0	-0.0	-0.0
0.027	-0.0	-0.0	-0.0	-8.701467514038086	-0.0800073444843292	-765.3136596679688	-0.0	-0.0	-0.0	-34.96210479736328	16.448190689086914	75.93245697021484	-0.0	-0.0	-0.0	-0.0	-0.0	-0.0
0.0275	-0.0	-0.0	-0.0	-8.701580047607422	0.3244433999061584	-762.7697143554688	-0.0	-0.0	-0.0	-34.66902160644531	16.399280548095703	77.36978912353516	-0.0	-0.0	-0.0	-0.0	-0.0	-0.0
0.028	-0.0	-0.0	-0.0	-8.847931861877441	0.0248235166072845	-763.4419555664062	-0.0	-0.0	-0.0	-34.85633087158203	16.08823585510254	75.04006958007812	-0.0	-0.0	-0.0	-0.0	-0.0	-0.0
0.0285	-0.0	-0.0	-0.0	-8.953265190124512	0.8504515886306763	-763.4130859375	-0.0	-0.0	-0.0	-34.92130661010742	16.120908737182617	77.01820373535156	-0.0	-0.0	-0.0	-0.0	-0.0	-0.0
0.029	-0.0	-0.0	-0.0	-9.13176155090332	0.713043212890625	-765.1827392578125	-0.0	-0.0	-0.0	-34.36033248901367	15.785508155822754	76.507568359375	-0.0	-0.0	-0.0	-0.0	-0.0	-0.0
0.029500000000000002	-0.0	-0.0	-0.0	-9.643033027648926	1.523507595062256	-766.0801391601562	-0.0	-0.0	-0.0	-34.87247467041016	16.12098503112793	74.2430648803711	-0.0	-0.0	-0.0	-0.0	-0.0	-0.0
0.03	-0.0	-0.0	-0.0	-10.235052108764648	1.6287543773651123	-763.189208984375	-0.0	-0.0	-0.0	-34.94558334350586	16.431575775146484	74.81690979003906	-0.0	-0.0	-0.0	-0.0	-0.0	-0.0
0.0305	-0.0	-0.0	-0.0	-10.891727447509766	1.7340946197509766	-762.9971923828125	-0.0	-0.0	-0.0	-34.59647750854492	16.218618392944336	76.75971221923828	-0.0	-0.0	-0.0	-0.0	-0.0	-0.0
0.031	-0.0	-0.0	-0.0	-11.078373908996582	2.2041537761688232	-761.2005004882812	-0.0	-0.0	-0.0	-34.961849212646484	15.843742370605469	74.81720733642578	-0.0	-0.0	-0.0	-0.0	-0.0	-0.0
0.0315	-0.0	-0.0	-0.0	-11.540732383728027	2.3096272945404053	-759.7882690429688	-0.0	-0.0	-0.0	-35.0184211730957	15.941152572631836	76.37863159179688	-0.0	-0.0	-0.0	-0.0	-0.0	-0.0
0.032	-0.0	-0.0	-0.0	-11.841072082519531	2.64129900932312	-759.1473999023438	-0.0	-0.0	-0.0	-35.12424850463867	16.357913970947266	76.2212142944336	-0.0	-0.0	-0.0	-0.0	-0.0	-0.0
0.0325	-0.0	-0.0	-0.0	-12.318466186523438	2.8194844722747803	-757.8006591796875	-0.0	-0.0	-0.0	-34.86536407470703	15.8512544631958	75.9351577758789	-0.0	-0.0	-0.0	-0.0	-0.0	-0.0
